<?xml version="1.0" encoding="utf-8"?>
<!-- Generator: Adobe Illustrator 21.0.0, SVG Export Plug-In . SVG Version: 6.00 Build 0)  -->
<svg version="1.1" id="Слой_1" xmlns="http://www.w3.org/2000/svg" xmlns:xlink="http://www.w3.org/1999/xlink" x="0px" y="0px"
	 viewBox="0 0 197 66" style="enable-background:new 0 0 197 66;" xml:space="preserve">
<style type="text/css">
	.st0{fill:url(#SVGID_1_);}
	.st1{fill:url(#SVGID_2_);}
	.st2{fill:#070708;}
	.st3{fill:#0E6379;}
</style>
<g>
	<linearGradient id="SVGID_1_" gradientUnits="userSpaceOnUse" x1="58.6856" y1="-1.7748" x2="-5.3852" y2="62.2959">
		<stop  offset="0" style="stop-color:#0095B3"/>
		<stop  offset="1" style="stop-color:#21344D"/>
	</linearGradient>
	<path class="st0" d="M35.3,2.2c-3-2.2-5.9-1.6-7.9,0s-6.7,5.9-9.3,9.1s-4.1,5-4.1,5s-0.7-0.1-0.8-0.9s-0.8-3-1.9-4
		s-1.8-0.8-1.8-0.8s-1.9,0.6-2.4,4s-0.3,7.6-2,11.6c-1.1,2.6-3.6,6-4.3,7.5C0.2,35.1,0,36.5,0,36.5L27.8,9.3c0,0,1.6-1.9,3.3-1.9
		s2.9,1.4,3.5,2s24.7,25.3,24.7,25.3s1.1-1.6-1.6-6.8C55,22.6,38.3,4.4,35.3,2.2z"/>
	<linearGradient id="SVGID_2_" gradientUnits="userSpaceOnUse" x1="64.7963" y1="4.3359" x2="0.7255" y2="68.4066">
		<stop  offset="0" style="stop-color:#0095B3"/>
		<stop  offset="1" style="stop-color:#21344D"/>
	</linearGradient>
	<path class="st1" d="M54.7,35.7c0,0-20.9-20.1-21.5-20.8c-0.6-0.8-1.5-1.2-2.6-1.2c-1.1,0-1.9,0.9-1.9,0.9L7.1,36.2
		c-0.3,0.2-0.2,0.6-0.2,0.8v28.2l14.5-8.7c10-4.6,17.2-5.9,17.2-5.9s0.7,0.4,0.8,1.5c0.2,1,0.3,3,0.3,3s0.8-0.7,2.7-2.5
		c2.7-2.7,6-10.8,6-10.8s-1.9-1.1-7-1.6c-3.8-0.4-11.4,0.1-11.4,0.1s0,0,1.4,1c1.4,1,2.3,2.2,2.3,2.2s-5.7,1.2-10.1,3.1
		c-4.9,2.2-9.4,6.1-9.4,6.1s0.7-1.9,4.2-5c3.5-3,11.1-5.3,11.1-5.3s-1-0.7-2-1.6c-1-0.9-1.8-2.6-1.8-2.6s1.5-1.1,10.2-2.2
		C44.6,35,54.7,35.7,54.7,35.7z"/>
	<g>
		<path class="st2" d="M92.8,14.1c3.3,0,5.9,0.7,7.8,2s2.8,3.2,2.8,5.8c0,1.3-0.3,2.5-1,3.5s-1.7,1.8-3,2.3c1.7,0.4,3,1.1,3.8,2.3
			s1.3,2.6,1.3,4.2c0,2.7-0.9,4.8-2.7,6.2c-1.8,1.4-4.3,2.1-7.6,2.1h-14v-3.4l3-0.6V18.1l-3-0.6v-3.4h3H92.8z M88.9,26H93
			c1.5,0,2.7-0.3,3.5-0.9s1.2-1.5,1.2-2.7c0-1.3-0.4-2.3-1.2-2.9s-2.1-0.9-3.7-0.9h-3.9V26z M88.9,30v8.2h5.2c1.5,0,2.7-0.3,3.5-1
			c0.8-0.7,1.2-1.6,1.2-2.9c0-1.4-0.3-2.5-1-3.2S96,30,94.6,30H88.9z"/>
		<path class="st2" d="M106.3,39.1l2-0.3l8.6-24.7h5.8l8.6,24.7l2,0.3v3.4h-9.7v-3.4l2-0.4l-1.2-3.9h-9.2l-1.2,3.9l2,0.4v3.4h-9.7
			V39.1z M116.6,30.7h6.5l-3.2-10h-0.1L116.6,30.7z"/>
		<path class="st2" d="M156.1,23.2h-4.3l-0.7-3.9c-0.5-0.3-1.2-0.6-2.2-0.8c-0.9-0.2-2-0.4-3-0.4c-1.6,0-2.8,0.3-3.6,1
			c-0.9,0.7-1.3,1.5-1.3,2.5c0,1,0.4,1.8,1.3,2.4c0.9,0.6,2.4,1.3,4.6,2c3.1,0.9,5.5,2,7.1,3.5s2.4,3.3,2.4,5.6c0,2.4-1,4.3-2.9,5.8
			c-1.9,1.4-4.5,2.1-7.6,2.1c-2.3,0-4.3-0.4-6.1-1.1c-1.8-0.7-3.3-1.7-4.5-3V33h4.4l0.6,4c0.6,0.5,1.3,0.9,2.3,1.2
			c1,0.3,2.1,0.5,3.3,0.5c1.6,0,2.7-0.3,3.6-1c0.8-0.6,1.2-1.5,1.2-2.6c0-1.1-0.4-2-1.2-2.6c-0.8-0.7-2.1-1.3-4.1-1.9
			c-3.4-1-5.9-2.1-7.6-3.5c-1.7-1.3-2.6-3.2-2.6-5.5c0-2.3,1-4.2,2.9-5.6s4.4-2.2,7.4-2.3c2.2,0,4.2,0.3,6,1s3.3,1.5,4.5,2.7V23.2z"
			/>
		<path class="st2" d="M160.3,17.6v-3.4h11.8v3.4l-3,0.6v20.4l3,0.6v3.4h-11.8v-3.4l3-0.6V18.1L160.3,17.6z"/>
		<path class="st2" d="M196.6,23.2h-4.3l-0.7-3.9c-0.5-0.3-1.2-0.6-2.2-0.8c-0.9-0.2-2-0.4-3-0.4c-1.6,0-2.8,0.3-3.6,1
			s-1.3,1.5-1.3,2.5c0,1,0.4,1.8,1.3,2.4c0.9,0.6,2.4,1.3,4.6,2c3.1,0.9,5.5,2,7.1,3.5s2.4,3.3,2.4,5.6c0,2.4-1,4.3-2.9,5.8
			c-1.9,1.4-4.5,2.1-7.6,2.1c-2.3,0-4.3-0.4-6.1-1.1c-1.8-0.7-3.3-1.7-4.5-3V33h4.4l0.6,4c0.6,0.5,1.3,0.9,2.3,1.2
			c1,0.3,2.1,0.5,3.3,0.5c1.6,0,2.7-0.3,3.6-1c0.8-0.6,1.2-1.5,1.2-2.6c0-1.1-0.4-2-1.2-2.6c-0.8-0.7-2.1-1.3-4.1-1.9
			c-3.4-1-5.9-2.1-7.6-3.5c-1.7-1.3-2.6-3.2-2.6-5.5c0-2.3,1-4.2,2.9-5.6s4.4-2.2,7.4-2.3c2.2,0,4.2,0.3,6,1s3.3,1.5,4.5,2.7V23.2z"
			/>
	</g>
	<g>
		<path class="st3" d="M83.6,60.8c0.4,0,0.8-0.1,1-0.4c0.3-0.2,0.4-0.5,0.4-0.9h1.5l0,0c0,0.7-0.3,1.3-0.9,1.8
			c-0.6,0.5-1.3,0.8-2.1,0.8c-1.1,0-1.9-0.4-2.5-1.1c-0.6-0.7-0.9-1.6-0.9-2.7v-0.2c0-1.1,0.3-2,0.9-2.7c0.6-0.7,1.4-1.1,2.5-1.1
			c0.9,0,1.6,0.3,2.2,0.8c0.6,0.5,0.8,1.2,0.8,2l0,0H85c0-0.4-0.1-0.8-0.4-1c-0.3-0.3-0.6-0.4-1.1-0.4c-0.6,0-1.1,0.2-1.3,0.7
			c-0.3,0.5-0.4,1-0.4,1.7v0.2c0,0.7,0.1,1.3,0.4,1.7C82.5,60.5,83,60.8,83.6,60.8z"/>
		<path class="st3" d="M90.9,58.2c0-1.1,0.3-2,0.9-2.7c0.6-0.7,1.5-1.1,2.5-1.1c1.1,0,1.9,0.4,2.5,1.1c0.6,0.7,0.9,1.6,0.9,2.7v0.1
			c0,1.1-0.3,2-0.9,2.7c-0.6,0.7-1.4,1.1-2.5,1.1c-1.1,0-1.9-0.4-2.5-1.1c-0.6-0.7-0.9-1.6-0.9-2.7V58.2z M92.5,58.3
			c0,0.7,0.1,1.3,0.4,1.8c0.3,0.5,0.7,0.7,1.3,0.7c0.6,0,1-0.2,1.3-0.7c0.3-0.5,0.4-1.1,0.4-1.8v-0.1c0-0.7-0.1-1.3-0.4-1.8
			c-0.3-0.5-0.7-0.7-1.3-0.7c-0.6,0-1,0.2-1.3,0.7c-0.3,0.5-0.4,1-0.4,1.8V58.3z"/>
		<path class="st3" d="M103.9,54.5l0.1,1c0.2-0.4,0.5-0.6,0.9-0.8c0.4-0.2,0.8-0.3,1.3-0.3c0.5,0,0.9,0.1,1.3,0.3
			c0.3,0.2,0.6,0.6,0.8,1c0.2-0.4,0.5-0.7,0.9-1c0.4-0.2,0.8-0.4,1.3-0.4c0.7,0,1.3,0.3,1.8,0.8c0.4,0.5,0.7,1.3,0.7,2.3V62h-1.7
			v-4.5c0-0.6-0.1-1.1-0.3-1.3c-0.2-0.3-0.5-0.4-1-0.4c-0.4,0-0.7,0.1-0.9,0.3c-0.2,0.2-0.4,0.5-0.5,0.8c0,0.1,0,0.1,0,0.2
			c0,0.1,0,0.1,0,0.1V62h-1.7v-4.5c0-0.6-0.1-1.1-0.3-1.3c-0.2-0.3-0.6-0.4-1-0.4c-0.3,0-0.6,0.1-0.9,0.2c-0.2,0.1-0.4,0.3-0.6,0.6
			V62h-1.7v-7.5H103.9z"/>
		<path class="st3" d="M121.1,62.1c-1.1,0-1.9-0.3-2.5-1c-0.6-0.7-0.9-1.6-0.9-2.7v-0.3c0-1.1,0.3-2,0.9-2.7
			c0.6-0.7,1.4-1.1,2.3-1.1c1,0,1.8,0.3,2.3,0.9c0.5,0.6,0.8,1.4,0.8,2.5v1h-4.7l0,0c0,0.6,0.2,1.1,0.5,1.5c0.3,0.4,0.8,0.6,1.3,0.6
			c0.5,0,0.8-0.1,1.2-0.2c0.3-0.1,0.6-0.3,0.9-0.5l0.5,1.1c-0.3,0.2-0.7,0.5-1.1,0.6C122.3,62,121.8,62.1,121.1,62.1z M121,55.7
			c-0.4,0-0.8,0.2-1,0.5c-0.3,0.3-0.4,0.7-0.5,1.3l0,0h3v-0.2c0-0.5-0.1-0.9-0.4-1.2S121.4,55.7,121,55.7z"/>
		<path class="st3" d="M135,59.3c0-0.6,0.2-1,0.5-1.4c0.3-0.4,0.8-0.8,1.4-1.2c-0.3-0.4-0.6-0.8-0.8-1.2c-0.2-0.4-0.2-0.7-0.2-1.1
			c0-0.8,0.2-1.4,0.7-1.9c0.5-0.5,1.1-0.7,1.9-0.7c0.7,0,1.3,0.2,1.8,0.7c0.5,0.4,0.7,1,0.7,1.6c0,0.5-0.1,0.9-0.4,1.2
			c-0.2,0.4-0.6,0.7-1,1l-0.7,0.5l2.1,2.5c0.2-0.3,0.3-0.6,0.4-1c0.1-0.3,0.2-0.7,0.2-1.1h1.4c0,0.6-0.1,1.2-0.3,1.7
			c-0.2,0.5-0.4,1-0.8,1.4l1.4,1.6l0,0h-1.9l-0.6-0.7c-0.4,0.3-0.8,0.5-1.2,0.6c-0.4,0.1-0.9,0.2-1.4,0.2c-1,0-1.8-0.3-2.4-0.8
			C135.3,60.8,135,60.1,135,59.3z M138.3,60.8c0.3,0,0.6,0,0.8-0.1c0.3-0.1,0.5-0.2,0.8-0.4l-2.3-2.7l-0.2,0.2
			c-0.3,0.3-0.6,0.5-0.7,0.7c-0.1,0.2-0.2,0.5-0.2,0.7c0,0.5,0.1,0.8,0.4,1.1C137.4,60.6,137.8,60.8,138.3,60.8z M137.4,54.3
			c0,0.2,0.1,0.4,0.2,0.7s0.3,0.5,0.5,0.8l0.8-0.5c0.3-0.2,0.4-0.3,0.5-0.5c0.1-0.2,0.1-0.4,0.1-0.6c0-0.2-0.1-0.5-0.3-0.7
			c-0.2-0.2-0.5-0.3-0.8-0.3c-0.3,0-0.6,0.1-0.8,0.3C137.5,53.7,137.4,54,137.4,54.3z"/>
		<path class="st3" d="M161,58.5c0,1.1-0.3,2-0.8,2.6c-0.5,0.7-1.2,1-2.1,1c-0.5,0-0.9-0.1-1.2-0.3c-0.3-0.2-0.6-0.5-0.9-0.8l-0.2,1
			h-1.4V51.2h1.7v4.1c0.2-0.3,0.5-0.6,0.8-0.7c0.3-0.2,0.7-0.3,1.1-0.3c0.9,0,1.7,0.4,2.2,1.1c0.5,0.7,0.8,1.7,0.8,2.9V58.5z
			 M159.4,58.3c0-0.8-0.1-1.4-0.4-1.9c-0.3-0.5-0.7-0.7-1.3-0.7c-0.4,0-0.7,0.1-0.9,0.2c-0.3,0.2-0.4,0.4-0.6,0.7v3.1
			c0.1,0.3,0.3,0.5,0.6,0.7c0.3,0.2,0.6,0.2,1,0.2c0.6,0,1-0.2,1.3-0.6c0.3-0.4,0.4-1,0.4-1.7V58.3z"/>
		<path class="st3" d="M170.4,60.9c-0.2,0.4-0.5,0.7-0.9,0.9c-0.4,0.2-0.8,0.3-1.2,0.3c-0.8,0-1.4-0.3-1.9-0.8s-0.7-1.3-0.7-2.4
			v-4.5h1.7V59c0,0.7,0.1,1.1,0.3,1.4c0.2,0.3,0.5,0.4,1,0.4c0.4,0,0.7-0.1,1-0.2c0.3-0.1,0.5-0.4,0.6-0.6v-5.4h1.7V62h-1.5
			L170.4,60.9z"/>
		<path class="st3" d="M178.8,52.7h-1.7v-1.5h1.7V52.7z M178.8,62h-1.7v-7.5h1.7V62z"/>
		<path class="st3" d="M185.7,62H184V51.2h1.7V62z"/>
		<path class="st3" d="M190.5,58.3c0-1.2,0.3-2.2,0.8-2.9c0.5-0.7,1.2-1.1,2.2-1.1c0.4,0,0.8,0.1,1.1,0.2c0.3,0.2,0.6,0.4,0.8,0.7
			v-4.1h1.7V62h-1.4l-0.2-0.9c-0.2,0.3-0.5,0.6-0.9,0.8c-0.3,0.2-0.7,0.3-1.2,0.3c-0.9,0-1.6-0.3-2.1-1c-0.5-0.7-0.8-1.5-0.8-2.6
			V58.3z M192.2,58.5c0,0.7,0.1,1.2,0.4,1.6c0.3,0.4,0.7,0.6,1.3,0.6c0.4,0,0.7-0.1,0.9-0.2c0.2-0.2,0.4-0.4,0.6-0.6v-3.3
			c-0.2-0.3-0.4-0.5-0.6-0.6c-0.2-0.2-0.5-0.2-0.9-0.2c-0.6,0-1,0.2-1.3,0.7c-0.3,0.5-0.4,1.1-0.4,1.9V58.5z"/>
	</g>
</g>
</svg>
